<?xml version="1.0" encoding="utf-8" standalone="no"?>
<!DOCTYPE svg PUBLIC "-//W3C//DTD SVG 1.1//EN"
  "http://www.w3.org/Graphics/SVG/1.1/DTD/svg11.dtd">
<!-- Created with matplotlib (https://matplotlib.org/) -->
<svg height="401.79125pt" version="1.1" viewBox="0 0 627.039062 401.79125" width="627.039062pt" xmlns="http://www.w3.org/2000/svg" xmlns:xlink="http://www.w3.org/1999/xlink">
 <defs>
  <style type="text/css">
*{stroke-linecap:butt;stroke-linejoin:round;}
  </style>
 </defs>
 <g id="figure_1">
  <g id="patch_1">
   <path d="M 0 401.79125 
L 627.039062 401.79125 
L 627.039062 0 
L 0 0 
z
" style="fill:none;"/>
  </g>
  <g id="axes_1">
   <g id="patch_2">
    <path d="M 61.839063 354.556875 
L 619.839062 354.556875 
L 619.839062 28.396875 
L 61.839063 28.396875 
z
" style="fill:#ffffff;"/>
   </g>
   <g id="PathCollection_1">
    <defs>
     <path d="M -0 4.242641 
L 2.545584 0 
L 0 -4.242641 
L -2.545584 -0 
z
" id="m7a98a2760d" style="stroke:#3274a1;"/>
    </defs>
    <g clip-path="url(#pf9f462e280)">
     <use style="fill:#3274a1;stroke:#3274a1;" x="131.589063" xlink:href="#m7a98a2760d" y="102.524148"/>
    </g>
   </g>
   <g id="PatchCollection_1">
    <path clip-path="url(#pf9f462e280)" d="M 131.153125 227.922784 
L 132.025 227.922784 
L 132.025 105.3125 
L 131.153125 105.3125 
z
" style="fill:#ffffff;"/>
    <path clip-path="url(#pf9f462e280)" d="M 130.717188 227.922784 
L 132.460938 227.922784 
L 132.460938 108.100852 
L 130.717188 108.100852 
z
" style="fill:#e2ebf2;"/>
    <path clip-path="url(#pf9f462e280)" d="M 129.845313 227.922784 
L 133.332813 227.922784 
L 133.332813 113.677557 
L 129.845313 113.677557 
z
" style="fill:#c4d7e4;"/>
    <path clip-path="url(#pf9f462e280)" d="M 128.101562 227.922784 
L 135.076563 227.922784 
L 135.076563 124.830966 
L 128.101562 124.830966 
z
" style="fill:#a7c4d7;"/>
    <path clip-path="url(#pf9f462e280)" d="M 124.614063 226.324415 
L 138.564063 226.324415 
L 138.564063 138.601916 
L 124.614063 138.601916 
z
" style="fill:#8aafc9;"/>
    <path clip-path="url(#pf9f462e280)" d="M 117.639063 223.76342 
L 145.539062 223.76342 
L 145.539062 148.252189 
L 117.639063 148.252189 
z
" style="fill:#6d9cbc;"/>
    <path clip-path="url(#pf9f462e280)" d="M 103.689063 207.849768 
L 159.489063 207.849768 
L 159.489063 162.681284 
L 103.689063 162.681284 
z
" style="fill:#4f88ae;"/>
    <path clip-path="url(#pf9f462e280)" d="M 75.789062 199.452955 
L 187.389063 199.452955 
L 187.389063 172.553919 
L 75.789062 172.553919 
z
" style="fill:#3274a1;"/>
   </g>
   <g id="PathCollection_2">
    <defs>
     <path d="M -0 4.242641 
L 2.545584 0 
L 0 -4.242641 
L -2.545584 -0 
z
" id="mb7d643ed1d" style="stroke:#e1812c;"/>
    </defs>
    <g clip-path="url(#pf9f462e280)">
     <use style="fill:#e1812c;stroke:#e1812c;" x="271.089063" xlink:href="#mb7d643ed1d" y="339.73142"/>
     <use style="fill:#e1812c;stroke:#e1812c;" x="271.089063" xlink:href="#mb7d643ed1d" y="43.22233"/>
    </g>
   </g>
   <g id="PatchCollection_2">
    <path clip-path="url(#pf9f462e280)" d="M 270.871094 334.705952 
L 271.307031 334.705952 
L 271.307031 73.375142 
L 270.871094 73.375142 
z
" style="fill:#ffffff;"/>
    <path clip-path="url(#pf9f462e280)" d="M 270.653125 331.411406 
L 271.525 331.411406 
L 271.525 82.756875 
L 270.653125 82.756875 
z
" style="fill:#fbefe5;"/>
    <path clip-path="url(#pf9f462e280)" d="M 270.217188 274.254496 
L 271.960938 274.254496 
L 271.960938 83.572468 
L 270.217188 83.572468 
z
" style="fill:#f7dfca;"/>
    <path clip-path="url(#pf9f462e280)" d="M 269.345312 243.929765 
L 272.832813 243.929765 
L 272.832813 102.524148 
L 269.345312 102.524148 
z
" style="fill:#f4d0b0;"/>
    <path clip-path="url(#pf9f462e280)" d="M 267.601562 236.727707 
L 274.576563 236.727707 
L 274.576563 111.691782 
L 267.601562 111.691782 
z
" style="fill:#f0c095;"/>
    <path clip-path="url(#pf9f462e280)" d="M 264.114063 225.081239 
L 278.064062 225.081239 
L 278.064062 127.233239 
L 264.114063 127.233239 
z
" style="fill:#ecb07b;"/>
    <path clip-path="url(#pf9f462e280)" d="M 257.139063 218.794928 
L 285.039062 218.794928 
L 285.039062 149.366126 
L 257.139063 149.366126 
z
" style="fill:#e8a060;"/>
    <path clip-path="url(#pf9f462e280)" d="M 243.189063 206.504372 
L 298.989063 206.504372 
L 298.989063 160.188053 
L 243.189063 160.188053 
z
" style="fill:#e59046;"/>
    <path clip-path="url(#pf9f462e280)" d="M 215.289062 199.037503 
L 326.889063 199.037503 
L 326.889063 171.405691 
L 215.289062 171.405691 
z
" style="fill:#e1812c;"/>
   </g>
   <g id="PathCollection_3">
    <defs>
     <path d="M -0 4.242641 
L 2.545584 0 
L 0 -4.242641 
L -2.545584 -0 
z
" id="mac73a4e7e3" style="stroke:#3a923a;"/>
    </defs>
    <g clip-path="url(#pf9f462e280)">
     <use style="fill:#3a923a;stroke:#3a923a;" x="410.589063" xlink:href="#mac73a4e7e3" y="89.345966"/>
    </g>
   </g>
   <g id="PatchCollection_3">
    <path clip-path="url(#pf9f462e280)" d="M 410.153125 231.01142 
L 411.025 231.01142 
L 411.025 92.305909 
L 410.153125 92.305909 
z
" style="fill:#ffffff;"/>
    <path clip-path="url(#pf9f462e280)" d="M 409.717188 231.01142 
L 411.460938 231.01142 
L 411.460938 95.265852 
L 409.717188 95.265852 
z
" style="fill:#e3f0e3;"/>
    <path clip-path="url(#pf9f462e280)" d="M 408.845313 231.01142 
L 412.332813 231.01142 
L 412.332813 101.185739 
L 408.845313 101.185739 
z
" style="fill:#c7e0c7;"/>
    <path clip-path="url(#pf9f462e280)" d="M 407.101562 231.01142 
L 414.076563 231.01142 
L 414.076563 131.830019 
L 407.101562 131.830019 
z
" style="fill:#abd0ab;"/>
    <path clip-path="url(#pf9f462e280)" d="M 403.614062 216.969668 
L 417.564062 216.969668 
L 417.564062 144.909063 
L 403.614062 144.909063 
z
" style="fill:#8ec18e;"/>
    <path clip-path="url(#pf9f462e280)" d="M 396.639063 209.576448 
L 424.539062 209.576448 
L 424.539062 155.993658 
L 396.639063 155.993658 
z
" style="fill:#72b172;"/>
    <path clip-path="url(#pf9f462e280)" d="M 382.689062 205.275008 
L 438.489063 205.275008 
L 438.489063 168.86044 
L 382.689062 168.86044 
z
" style="fill:#56a156;"/>
    <path clip-path="url(#pf9f462e280)" d="M 354.789062 200.492096 
L 466.389063 200.492096 
L 466.389063 176.483073 
L 354.789062 176.483073 
z
" style="fill:#3a923a;"/>
   </g>
   <g id="PathCollection_4">
    <defs>
     <path d="M -0 4.242641 
L 2.545584 0 
L 0 -4.242641 
L -2.545584 -0 
z
" id="mb21716b0b7" style="stroke:#c03d3e;"/>
    </defs>
    <g clip-path="url(#pf9f462e280)">
     <use style="fill:#c03d3e;stroke:#c03d3e;" x="550.089062" xlink:href="#mb21716b0b7" y="236.227784"/>
     <use style="fill:#c03d3e;stroke:#c03d3e;" x="550.089062" xlink:href="#mb21716b0b7" y="155.181966"/>
    </g>
   </g>
   <g id="PatchCollection_4">
    <path clip-path="url(#pf9f462e280)" d="M 549.653125 235.235774 
L 550.525 235.235774 
L 550.525 155.830794 
L 549.653125 155.830794 
z
" style="fill:#ffffff;"/>
    <path clip-path="url(#pf9f462e280)" d="M 549.217188 234.243764 
L 550.960938 234.243764 
L 550.960938 156.479622 
L 549.217188 156.479622 
z
" style="fill:#f6e4e4;"/>
    <path clip-path="url(#pf9f462e280)" d="M 548.345312 232.259744 
L 551.832813 232.259744 
L 551.832813 157.777278 
L 548.345312 157.777278 
z
" style="fill:#edc7c8;"/>
    <path clip-path="url(#pf9f462e280)" d="M 546.601562 228.291705 
L 553.576563 228.291705 
L 553.576563 160.372591 
L 546.601562 160.372591 
z
" style="fill:#e4acad;"/>
    <path clip-path="url(#pf9f462e280)" d="M 543.114063 223.28983 
L 557.064063 223.28983 
L 557.064063 163.468559 
L 543.114063 163.468559 
z
" style="fill:#db9090;"/>
    <path clip-path="url(#pf9f462e280)" d="M 536.139063 220.275549 
L 564.039062 220.275549 
L 564.039062 166.733226 
L 536.139063 166.733226 
z
" style="fill:#d27575;"/>
    <path clip-path="url(#pf9f462e280)" d="M 522.189062 213.920966 
L 577.989063 213.920966 
L 577.989063 174.311544 
L 522.189062 174.311544 
z
" style="fill:#c95859;"/>
    <path clip-path="url(#pf9f462e280)" d="M 494.289062 202.430169 
L 605.889063 202.430169 
L 605.889063 180.357924 
L 494.289062 180.357924 
z
" style="fill:#c03d3e;"/>
   </g>
   <g id="matplotlib.axis_1">
    <g id="xtick_1">
     <g id="line2d_1">
      <defs>
       <path d="M 0 0 
L 0 3.5 
" id="mead0b06f43" style="stroke:#000000;stroke-width:0.8;"/>
      </defs>
      <g>
       <use style="stroke:#000000;stroke-width:0.8;" x="131.589063" xlink:href="#mead0b06f43" y="354.556875"/>
      </g>
     </g>
     <g id="text_1">
      <!-- Thomson Reuters -->
      <defs>
       <path d="M -0.296875 72.90625 
L 61.375 72.90625 
L 61.375 64.59375 
L 35.5 64.59375 
L 35.5 0 
L 25.59375 0 
L 25.59375 64.59375 
L -0.296875 64.59375 
z
" id="DejaVuSans-84"/>
       <path d="M 54.890625 33.015625 
L 54.890625 0 
L 45.90625 0 
L 45.90625 32.71875 
Q 45.90625 40.484375 42.875 44.328125 
Q 39.84375 48.1875 33.796875 48.1875 
Q 26.515625 48.1875 22.3125 43.546875 
Q 18.109375 38.921875 18.109375 30.90625 
L 18.109375 0 
L 9.078125 0 
L 9.078125 75.984375 
L 18.109375 75.984375 
L 18.109375 46.1875 
Q 21.34375 51.125 25.703125 53.5625 
Q 30.078125 56 35.796875 56 
Q 45.21875 56 50.046875 50.171875 
Q 54.890625 44.34375 54.890625 33.015625 
z
" id="DejaVuSans-104"/>
       <path d="M 30.609375 48.390625 
Q 23.390625 48.390625 19.1875 42.75 
Q 14.984375 37.109375 14.984375 27.296875 
Q 14.984375 17.484375 19.15625 11.84375 
Q 23.34375 6.203125 30.609375 6.203125 
Q 37.796875 6.203125 41.984375 11.859375 
Q 46.1875 17.53125 46.1875 27.296875 
Q 46.1875 37.015625 41.984375 42.703125 
Q 37.796875 48.390625 30.609375 48.390625 
z
M 30.609375 56 
Q 42.328125 56 49.015625 48.375 
Q 55.71875 40.765625 55.71875 27.296875 
Q 55.71875 13.875 49.015625 6.21875 
Q 42.328125 -1.421875 30.609375 -1.421875 
Q 18.84375 -1.421875 12.171875 6.21875 
Q 5.515625 13.875 5.515625 27.296875 
Q 5.515625 40.765625 12.171875 48.375 
Q 18.84375 56 30.609375 56 
z
" id="DejaVuSans-111"/>
       <path d="M 52 44.1875 
Q 55.375 50.25 60.0625 53.125 
Q 64.75 56 71.09375 56 
Q 79.640625 56 84.28125 50.015625 
Q 88.921875 44.046875 88.921875 33.015625 
L 88.921875 0 
L 79.890625 0 
L 79.890625 32.71875 
Q 79.890625 40.578125 77.09375 44.375 
Q 74.3125 48.1875 68.609375 48.1875 
Q 61.625 48.1875 57.5625 43.546875 
Q 53.515625 38.921875 53.515625 30.90625 
L 53.515625 0 
L 44.484375 0 
L 44.484375 32.71875 
Q 44.484375 40.625 41.703125 44.40625 
Q 38.921875 48.1875 33.109375 48.1875 
Q 26.21875 48.1875 22.15625 43.53125 
Q 18.109375 38.875 18.109375 30.90625 
L 18.109375 0 
L 9.078125 0 
L 9.078125 54.6875 
L 18.109375 54.6875 
L 18.109375 46.1875 
Q 21.1875 51.21875 25.484375 53.609375 
Q 29.78125 56 35.6875 56 
Q 41.65625 56 45.828125 52.96875 
Q 50 49.953125 52 44.1875 
z
" id="DejaVuSans-109"/>
       <path d="M 44.28125 53.078125 
L 44.28125 44.578125 
Q 40.484375 46.53125 36.375 47.5 
Q 32.28125 48.484375 27.875 48.484375 
Q 21.1875 48.484375 17.84375 46.4375 
Q 14.5 44.390625 14.5 40.28125 
Q 14.5 37.15625 16.890625 35.375 
Q 19.28125 33.59375 26.515625 31.984375 
L 29.59375 31.296875 
Q 39.15625 29.25 43.1875 25.515625 
Q 47.21875 21.78125 47.21875 15.09375 
Q 47.21875 7.46875 41.1875 3.015625 
Q 35.15625 -1.421875 24.609375 -1.421875 
Q 20.21875 -1.421875 15.453125 -0.5625 
Q 10.6875 0.296875 5.421875 2 
L 5.421875 11.28125 
Q 10.40625 8.6875 15.234375 7.390625 
Q 20.0625 6.109375 24.8125 6.109375 
Q 31.15625 6.109375 34.5625 8.28125 
Q 37.984375 10.453125 37.984375 14.40625 
Q 37.984375 18.0625 35.515625 20.015625 
Q 33.0625 21.96875 24.703125 23.78125 
L 21.578125 24.515625 
Q 13.234375 26.265625 9.515625 29.90625 
Q 5.8125 33.546875 5.8125 39.890625 
Q 5.8125 47.609375 11.28125 51.796875 
Q 16.75 56 26.8125 56 
Q 31.78125 56 36.171875 55.265625 
Q 40.578125 54.546875 44.28125 53.078125 
z
" id="DejaVuSans-115"/>
       <path d="M 54.890625 33.015625 
L 54.890625 0 
L 45.90625 0 
L 45.90625 32.71875 
Q 45.90625 40.484375 42.875 44.328125 
Q 39.84375 48.1875 33.796875 48.1875 
Q 26.515625 48.1875 22.3125 43.546875 
Q 18.109375 38.921875 18.109375 30.90625 
L 18.109375 0 
L 9.078125 0 
L 9.078125 54.6875 
L 18.109375 54.6875 
L 18.109375 46.1875 
Q 21.34375 51.125 25.703125 53.5625 
Q 30.078125 56 35.796875 56 
Q 45.21875 56 50.046875 50.171875 
Q 54.890625 44.34375 54.890625 33.015625 
z
" id="DejaVuSans-110"/>
       <path id="DejaVuSans-32"/>
       <path d="M 44.390625 34.1875 
Q 47.5625 33.109375 50.5625 29.59375 
Q 53.5625 26.078125 56.59375 19.921875 
L 66.609375 0 
L 56 0 
L 46.6875 18.703125 
Q 43.0625 26.03125 39.671875 28.421875 
Q 36.28125 30.8125 30.421875 30.8125 
L 19.671875 30.8125 
L 19.671875 0 
L 9.8125 0 
L 9.8125 72.90625 
L 32.078125 72.90625 
Q 44.578125 72.90625 50.734375 67.671875 
Q 56.890625 62.453125 56.890625 51.90625 
Q 56.890625 45.015625 53.6875 40.46875 
Q 50.484375 35.9375 44.390625 34.1875 
z
M 19.671875 64.796875 
L 19.671875 38.921875 
L 32.078125 38.921875 
Q 39.203125 38.921875 42.84375 42.21875 
Q 46.484375 45.515625 46.484375 51.90625 
Q 46.484375 58.296875 42.84375 61.546875 
Q 39.203125 64.796875 32.078125 64.796875 
z
" id="DejaVuSans-82"/>
       <path d="M 56.203125 29.59375 
L 56.203125 25.203125 
L 14.890625 25.203125 
Q 15.484375 15.921875 20.484375 11.0625 
Q 25.484375 6.203125 34.421875 6.203125 
Q 39.59375 6.203125 44.453125 7.46875 
Q 49.3125 8.734375 54.109375 11.28125 
L 54.109375 2.78125 
Q 49.265625 0.734375 44.1875 -0.34375 
Q 39.109375 -1.421875 33.890625 -1.421875 
Q 20.796875 -1.421875 13.15625 6.1875 
Q 5.515625 13.8125 5.515625 26.8125 
Q 5.515625 40.234375 12.765625 48.109375 
Q 20.015625 56 32.328125 56 
Q 43.359375 56 49.78125 48.890625 
Q 56.203125 41.796875 56.203125 29.59375 
z
M 47.21875 32.234375 
Q 47.125 39.59375 43.09375 43.984375 
Q 39.0625 48.390625 32.421875 48.390625 
Q 24.90625 48.390625 20.390625 44.140625 
Q 15.875 39.890625 15.1875 32.171875 
z
" id="DejaVuSans-101"/>
       <path d="M 8.5 21.578125 
L 8.5 54.6875 
L 17.484375 54.6875 
L 17.484375 21.921875 
Q 17.484375 14.15625 20.5 10.265625 
Q 23.53125 6.390625 29.59375 6.390625 
Q 36.859375 6.390625 41.078125 11.03125 
Q 45.3125 15.671875 45.3125 23.6875 
L 45.3125 54.6875 
L 54.296875 54.6875 
L 54.296875 0 
L 45.3125 0 
L 45.3125 8.40625 
Q 42.046875 3.421875 37.71875 1 
Q 33.40625 -1.421875 27.6875 -1.421875 
Q 18.265625 -1.421875 13.375 4.4375 
Q 8.5 10.296875 8.5 21.578125 
z
M 31.109375 56 
z
" id="DejaVuSans-117"/>
       <path d="M 18.3125 70.21875 
L 18.3125 54.6875 
L 36.8125 54.6875 
L 36.8125 47.703125 
L 18.3125 47.703125 
L 18.3125 18.015625 
Q 18.3125 11.328125 20.140625 9.421875 
Q 21.96875 7.515625 27.59375 7.515625 
L 36.8125 7.515625 
L 36.8125 0 
L 27.59375 0 
Q 17.1875 0 13.234375 3.875 
Q 9.28125 7.765625 9.28125 18.015625 
L 9.28125 47.703125 
L 2.6875 47.703125 
L 2.6875 54.6875 
L 9.28125 54.6875 
L 9.28125 70.21875 
z
" id="DejaVuSans-116"/>
       <path d="M 41.109375 46.296875 
Q 39.59375 47.171875 37.8125 47.578125 
Q 36.03125 48 33.890625 48 
Q 26.265625 48 22.1875 43.046875 
Q 18.109375 38.09375 18.109375 28.8125 
L 18.109375 0 
L 9.078125 0 
L 9.078125 54.6875 
L 18.109375 54.6875 
L 18.109375 46.1875 
Q 20.953125 51.171875 25.484375 53.578125 
Q 30.03125 56 36.53125 56 
Q 37.453125 56 38.578125 55.875 
Q 39.703125 55.765625 41.0625 55.515625 
z
" id="DejaVuSans-114"/>
      </defs>
      <g transform="translate(87.823438 369.155312)scale(0.1 -0.1)">
       <use xlink:href="#DejaVuSans-84"/>
       <use x="61.083984" xlink:href="#DejaVuSans-104"/>
       <use x="124.462891" xlink:href="#DejaVuSans-111"/>
       <use x="185.644531" xlink:href="#DejaVuSans-109"/>
       <use x="283.056641" xlink:href="#DejaVuSans-115"/>
       <use x="335.15625" xlink:href="#DejaVuSans-111"/>
       <use x="396.337891" xlink:href="#DejaVuSans-110"/>
       <use x="459.716797" xlink:href="#DejaVuSans-32"/>
       <use x="491.503906" xlink:href="#DejaVuSans-82"/>
       <use x="556.486328" xlink:href="#DejaVuSans-101"/>
       <use x="618.009766" xlink:href="#DejaVuSans-117"/>
       <use x="681.388672" xlink:href="#DejaVuSans-116"/>
       <use x="720.597656" xlink:href="#DejaVuSans-101"/>
       <use x="782.121094" xlink:href="#DejaVuSans-114"/>
       <use x="823.234375" xlink:href="#DejaVuSans-115"/>
      </g>
     </g>
    </g>
    <g id="xtick_2">
     <g id="line2d_2">
      <g>
       <use style="stroke:#000000;stroke-width:0.8;" x="271.089063" xlink:href="#mead0b06f43" y="354.556875"/>
      </g>
     </g>
     <g id="text_2">
      <!-- Cbc News -->
      <defs>
       <path d="M 64.40625 67.28125 
L 64.40625 56.890625 
Q 59.421875 61.53125 53.78125 63.8125 
Q 48.140625 66.109375 41.796875 66.109375 
Q 29.296875 66.109375 22.65625 58.46875 
Q 16.015625 50.828125 16.015625 36.375 
Q 16.015625 21.96875 22.65625 14.328125 
Q 29.296875 6.6875 41.796875 6.6875 
Q 48.140625 6.6875 53.78125 8.984375 
Q 59.421875 11.28125 64.40625 15.921875 
L 64.40625 5.609375 
Q 59.234375 2.09375 53.4375 0.328125 
Q 47.65625 -1.421875 41.21875 -1.421875 
Q 24.65625 -1.421875 15.125 8.703125 
Q 5.609375 18.84375 5.609375 36.375 
Q 5.609375 53.953125 15.125 64.078125 
Q 24.65625 74.21875 41.21875 74.21875 
Q 47.75 74.21875 53.53125 72.484375 
Q 59.328125 70.75 64.40625 67.28125 
z
" id="DejaVuSans-67"/>
       <path d="M 48.6875 27.296875 
Q 48.6875 37.203125 44.609375 42.84375 
Q 40.53125 48.484375 33.40625 48.484375 
Q 26.265625 48.484375 22.1875 42.84375 
Q 18.109375 37.203125 18.109375 27.296875 
Q 18.109375 17.390625 22.1875 11.75 
Q 26.265625 6.109375 33.40625 6.109375 
Q 40.53125 6.109375 44.609375 11.75 
Q 48.6875 17.390625 48.6875 27.296875 
z
M 18.109375 46.390625 
Q 20.953125 51.265625 25.265625 53.625 
Q 29.59375 56 35.59375 56 
Q 45.5625 56 51.78125 48.09375 
Q 58.015625 40.1875 58.015625 27.296875 
Q 58.015625 14.40625 51.78125 6.484375 
Q 45.5625 -1.421875 35.59375 -1.421875 
Q 29.59375 -1.421875 25.265625 0.953125 
Q 20.953125 3.328125 18.109375 8.203125 
L 18.109375 0 
L 9.078125 0 
L 9.078125 75.984375 
L 18.109375 75.984375 
z
" id="DejaVuSans-98"/>
       <path d="M 48.78125 52.59375 
L 48.78125 44.1875 
Q 44.96875 46.296875 41.140625 47.34375 
Q 37.3125 48.390625 33.40625 48.390625 
Q 24.65625 48.390625 19.8125 42.84375 
Q 14.984375 37.3125 14.984375 27.296875 
Q 14.984375 17.28125 19.8125 11.734375 
Q 24.65625 6.203125 33.40625 6.203125 
Q 37.3125 6.203125 41.140625 7.25 
Q 44.96875 8.296875 48.78125 10.40625 
L 48.78125 2.09375 
Q 45.015625 0.34375 40.984375 -0.53125 
Q 36.96875 -1.421875 32.421875 -1.421875 
Q 20.0625 -1.421875 12.78125 6.34375 
Q 5.515625 14.109375 5.515625 27.296875 
Q 5.515625 40.671875 12.859375 48.328125 
Q 20.21875 56 33.015625 56 
Q 37.15625 56 41.109375 55.140625 
Q 45.0625 54.296875 48.78125 52.59375 
z
" id="DejaVuSans-99"/>
       <path d="M 9.8125 72.90625 
L 23.09375 72.90625 
L 55.421875 11.921875 
L 55.421875 72.90625 
L 64.984375 72.90625 
L 64.984375 0 
L 51.703125 0 
L 19.390625 60.984375 
L 19.390625 0 
L 9.8125 0 
z
" id="DejaVuSans-78"/>
       <path d="M 4.203125 54.6875 
L 13.1875 54.6875 
L 24.421875 12.015625 
L 35.59375 54.6875 
L 46.1875 54.6875 
L 57.421875 12.015625 
L 68.609375 54.6875 
L 77.59375 54.6875 
L 63.28125 0 
L 52.6875 0 
L 40.921875 44.828125 
L 29.109375 0 
L 18.5 0 
z
" id="DejaVuSans-119"/>
      </defs>
      <g transform="translate(246.574219 369.155312)scale(0.1 -0.1)">
       <use xlink:href="#DejaVuSans-67"/>
       <use x="69.824219" xlink:href="#DejaVuSans-98"/>
       <use x="133.300781" xlink:href="#DejaVuSans-99"/>
       <use x="188.28125" xlink:href="#DejaVuSans-32"/>
       <use x="220.068359" xlink:href="#DejaVuSans-78"/>
       <use x="294.873047" xlink:href="#DejaVuSans-101"/>
       <use x="356.396484" xlink:href="#DejaVuSans-119"/>
       <use x="438.183594" xlink:href="#DejaVuSans-115"/>
      </g>
     </g>
    </g>
    <g id="xtick_3">
     <g id="line2d_3">
      <g>
       <use style="stroke:#000000;stroke-width:0.8;" x="410.589063" xlink:href="#mead0b06f43" y="354.556875"/>
      </g>
     </g>
     <g id="text_3">
      <!-- The Associated Press -->
      <defs>
       <path d="M 34.1875 63.1875 
L 20.796875 26.90625 
L 47.609375 26.90625 
z
M 28.609375 72.90625 
L 39.796875 72.90625 
L 67.578125 0 
L 57.328125 0 
L 50.6875 18.703125 
L 17.828125 18.703125 
L 11.1875 0 
L 0.78125 0 
z
" id="DejaVuSans-65"/>
       <path d="M 9.421875 54.6875 
L 18.40625 54.6875 
L 18.40625 0 
L 9.421875 0 
z
M 9.421875 75.984375 
L 18.40625 75.984375 
L 18.40625 64.59375 
L 9.421875 64.59375 
z
" id="DejaVuSans-105"/>
       <path d="M 34.28125 27.484375 
Q 23.390625 27.484375 19.1875 25 
Q 14.984375 22.515625 14.984375 16.5 
Q 14.984375 11.71875 18.140625 8.90625 
Q 21.296875 6.109375 26.703125 6.109375 
Q 34.1875 6.109375 38.703125 11.40625 
Q 43.21875 16.703125 43.21875 25.484375 
L 43.21875 27.484375 
z
M 52.203125 31.203125 
L 52.203125 0 
L 43.21875 0 
L 43.21875 8.296875 
Q 40.140625 3.328125 35.546875 0.953125 
Q 30.953125 -1.421875 24.3125 -1.421875 
Q 15.921875 -1.421875 10.953125 3.296875 
Q 6 8.015625 6 15.921875 
Q 6 25.140625 12.171875 29.828125 
Q 18.359375 34.515625 30.609375 34.515625 
L 43.21875 34.515625 
L 43.21875 35.40625 
Q 43.21875 41.609375 39.140625 45 
Q 35.0625 48.390625 27.6875 48.390625 
Q 23 48.390625 18.546875 47.265625 
Q 14.109375 46.140625 10.015625 43.890625 
L 10.015625 52.203125 
Q 14.9375 54.109375 19.578125 55.046875 
Q 24.21875 56 28.609375 56 
Q 40.484375 56 46.34375 49.84375 
Q 52.203125 43.703125 52.203125 31.203125 
z
" id="DejaVuSans-97"/>
       <path d="M 45.40625 46.390625 
L 45.40625 75.984375 
L 54.390625 75.984375 
L 54.390625 0 
L 45.40625 0 
L 45.40625 8.203125 
Q 42.578125 3.328125 38.25 0.953125 
Q 33.9375 -1.421875 27.875 -1.421875 
Q 17.96875 -1.421875 11.734375 6.484375 
Q 5.515625 14.40625 5.515625 27.296875 
Q 5.515625 40.1875 11.734375 48.09375 
Q 17.96875 56 27.875 56 
Q 33.9375 56 38.25 53.625 
Q 42.578125 51.265625 45.40625 46.390625 
z
M 14.796875 27.296875 
Q 14.796875 17.390625 18.875 11.75 
Q 22.953125 6.109375 30.078125 6.109375 
Q 37.203125 6.109375 41.296875 11.75 
Q 45.40625 17.390625 45.40625 27.296875 
Q 45.40625 37.203125 41.296875 42.84375 
Q 37.203125 48.484375 30.078125 48.484375 
Q 22.953125 48.484375 18.875 42.84375 
Q 14.796875 37.203125 14.796875 27.296875 
z
" id="DejaVuSans-100"/>
       <path d="M 19.671875 64.796875 
L 19.671875 37.40625 
L 32.078125 37.40625 
Q 38.96875 37.40625 42.71875 40.96875 
Q 46.484375 44.53125 46.484375 51.125 
Q 46.484375 57.671875 42.71875 61.234375 
Q 38.96875 64.796875 32.078125 64.796875 
z
M 9.8125 72.90625 
L 32.078125 72.90625 
Q 44.34375 72.90625 50.609375 67.359375 
Q 56.890625 61.8125 56.890625 51.125 
Q 56.890625 40.328125 50.609375 34.8125 
Q 44.34375 29.296875 32.078125 29.296875 
L 19.671875 29.296875 
L 19.671875 0 
L 9.8125 0 
z
" id="DejaVuSans-80"/>
      </defs>
      <g transform="translate(357.853125 369.155312)scale(0.1 -0.1)">
       <use xlink:href="#DejaVuSans-84"/>
       <use x="61.083984" xlink:href="#DejaVuSans-104"/>
       <use x="124.462891" xlink:href="#DejaVuSans-101"/>
       <use x="185.986328" xlink:href="#DejaVuSans-32"/>
       <use x="217.773438" xlink:href="#DejaVuSans-65"/>
       <use x="286.181641" xlink:href="#DejaVuSans-115"/>
       <use x="338.28125" xlink:href="#DejaVuSans-115"/>
       <use x="390.380859" xlink:href="#DejaVuSans-111"/>
       <use x="451.5625" xlink:href="#DejaVuSans-99"/>
       <use x="506.542969" xlink:href="#DejaVuSans-105"/>
       <use x="534.326172" xlink:href="#DejaVuSans-97"/>
       <use x="595.605469" xlink:href="#DejaVuSans-116"/>
       <use x="634.814453" xlink:href="#DejaVuSans-101"/>
       <use x="696.337891" xlink:href="#DejaVuSans-100"/>
       <use x="759.814453" xlink:href="#DejaVuSans-32"/>
       <use x="791.601562" xlink:href="#DejaVuSans-80"/>
       <use x="850.154297" xlink:href="#DejaVuSans-114"/>
       <use x="889.017578" xlink:href="#DejaVuSans-101"/>
       <use x="950.541016" xlink:href="#DejaVuSans-115"/>
       <use x="1002.640625" xlink:href="#DejaVuSans-115"/>
      </g>
     </g>
    </g>
    <g id="xtick_4">
     <g id="line2d_4">
      <g>
       <use style="stroke:#000000;stroke-width:0.8;" x="550.089062" xlink:href="#mead0b06f43" y="354.556875"/>
      </g>
     </g>
     <g id="text_4">
      <!-- The Canadian Press -->
      <g transform="translate(500.871094 369.155312)scale(0.1 -0.1)">
       <use xlink:href="#DejaVuSans-84"/>
       <use x="61.083984" xlink:href="#DejaVuSans-104"/>
       <use x="124.462891" xlink:href="#DejaVuSans-101"/>
       <use x="185.986328" xlink:href="#DejaVuSans-32"/>
       <use x="217.773438" xlink:href="#DejaVuSans-67"/>
       <use x="287.597656" xlink:href="#DejaVuSans-97"/>
       <use x="348.876953" xlink:href="#DejaVuSans-110"/>
       <use x="412.255859" xlink:href="#DejaVuSans-97"/>
       <use x="473.535156" xlink:href="#DejaVuSans-100"/>
       <use x="537.011719" xlink:href="#DejaVuSans-105"/>
       <use x="564.794922" xlink:href="#DejaVuSans-97"/>
       <use x="626.074219" xlink:href="#DejaVuSans-110"/>
       <use x="689.453125" xlink:href="#DejaVuSans-32"/>
       <use x="721.240234" xlink:href="#DejaVuSans-80"/>
       <use x="779.792969" xlink:href="#DejaVuSans-114"/>
       <use x="818.65625" xlink:href="#DejaVuSans-101"/>
       <use x="880.179688" xlink:href="#DejaVuSans-115"/>
       <use x="932.279297" xlink:href="#DejaVuSans-115"/>
      </g>
     </g>
    </g>
    <g id="text_5">
     <!-- Authors -->
     <g style="fill:#00bfbf;" transform="translate(301.964063 390.431875)scale(0.2 -0.2)">
      <use xlink:href="#DejaVuSans-65"/>
      <use x="68.408203" xlink:href="#DejaVuSans-117"/>
      <use x="131.787109" xlink:href="#DejaVuSans-116"/>
      <use x="170.996094" xlink:href="#DejaVuSans-104"/>
      <use x="234.375" xlink:href="#DejaVuSans-111"/>
      <use x="295.556641" xlink:href="#DejaVuSans-114"/>
      <use x="336.669922" xlink:href="#DejaVuSans-115"/>
     </g>
    </g>
   </g>
   <g id="matplotlib.axis_2">
    <g id="ytick_1">
     <g id="line2d_5">
      <defs>
       <path d="M 0 0 
L -3.5 0 
" id="m6ac2cfd948" style="stroke:#000000;stroke-width:0.8;"/>
      </defs>
      <g>
       <use style="stroke:#000000;stroke-width:0.8;" x="61.839063" xlink:href="#m6ac2cfd948" y="319.964148"/>
      </g>
     </g>
     <g id="text_6">
      <!-- −0.6 -->
      <defs>
       <path d="M 10.59375 35.5 
L 73.1875 35.5 
L 73.1875 27.203125 
L 10.59375 27.203125 
z
" id="DejaVuSans-8722"/>
       <path d="M 31.78125 66.40625 
Q 24.171875 66.40625 20.328125 58.90625 
Q 16.5 51.421875 16.5 36.375 
Q 16.5 21.390625 20.328125 13.890625 
Q 24.171875 6.390625 31.78125 6.390625 
Q 39.453125 6.390625 43.28125 13.890625 
Q 47.125 21.390625 47.125 36.375 
Q 47.125 51.421875 43.28125 58.90625 
Q 39.453125 66.40625 31.78125 66.40625 
z
M 31.78125 74.21875 
Q 44.046875 74.21875 50.515625 64.515625 
Q 56.984375 54.828125 56.984375 36.375 
Q 56.984375 17.96875 50.515625 8.265625 
Q 44.046875 -1.421875 31.78125 -1.421875 
Q 19.53125 -1.421875 13.0625 8.265625 
Q 6.59375 17.96875 6.59375 36.375 
Q 6.59375 54.828125 13.0625 64.515625 
Q 19.53125 74.21875 31.78125 74.21875 
z
" id="DejaVuSans-48"/>
       <path d="M 10.6875 12.40625 
L 21 12.40625 
L 21 0 
L 10.6875 0 
z
" id="DejaVuSans-46"/>
       <path d="M 33.015625 40.375 
Q 26.375 40.375 22.484375 35.828125 
Q 18.609375 31.296875 18.609375 23.390625 
Q 18.609375 15.53125 22.484375 10.953125 
Q 26.375 6.390625 33.015625 6.390625 
Q 39.65625 6.390625 43.53125 10.953125 
Q 47.40625 15.53125 47.40625 23.390625 
Q 47.40625 31.296875 43.53125 35.828125 
Q 39.65625 40.375 33.015625 40.375 
z
M 52.59375 71.296875 
L 52.59375 62.3125 
Q 48.875 64.0625 45.09375 64.984375 
Q 41.3125 65.921875 37.59375 65.921875 
Q 27.828125 65.921875 22.671875 59.328125 
Q 17.53125 52.734375 16.796875 39.40625 
Q 19.671875 43.65625 24.015625 45.921875 
Q 28.375 48.1875 33.59375 48.1875 
Q 44.578125 48.1875 50.953125 41.515625 
Q 57.328125 34.859375 57.328125 23.390625 
Q 57.328125 12.15625 50.6875 5.359375 
Q 44.046875 -1.421875 33.015625 -1.421875 
Q 20.359375 -1.421875 13.671875 8.265625 
Q 6.984375 17.96875 6.984375 36.375 
Q 6.984375 53.65625 15.1875 63.9375 
Q 23.390625 74.21875 37.203125 74.21875 
Q 40.921875 74.21875 44.703125 73.484375 
Q 48.484375 72.75 52.59375 71.296875 
z
" id="DejaVuSans-54"/>
      </defs>
      <g transform="translate(30.55625 323.763366)scale(0.1 -0.1)">
       <use xlink:href="#DejaVuSans-8722"/>
       <use x="83.789062" xlink:href="#DejaVuSans-48"/>
       <use x="147.412109" xlink:href="#DejaVuSans-46"/>
       <use x="179.199219" xlink:href="#DejaVuSans-54"/>
      </g>
     </g>
    </g>
    <g id="ytick_2">
     <g id="line2d_6">
      <g>
       <use style="stroke:#000000;stroke-width:0.8;" x="61.839063" xlink:href="#m6ac2cfd948" y="280.429602"/>
      </g>
     </g>
     <g id="text_7">
      <!-- −0.4 -->
      <defs>
       <path d="M 37.796875 64.3125 
L 12.890625 25.390625 
L 37.796875 25.390625 
z
M 35.203125 72.90625 
L 47.609375 72.90625 
L 47.609375 25.390625 
L 58.015625 25.390625 
L 58.015625 17.1875 
L 47.609375 17.1875 
L 47.609375 0 
L 37.796875 0 
L 37.796875 17.1875 
L 4.890625 17.1875 
L 4.890625 26.703125 
z
" id="DejaVuSans-52"/>
      </defs>
      <g transform="translate(30.55625 284.228821)scale(0.1 -0.1)">
       <use xlink:href="#DejaVuSans-8722"/>
       <use x="83.789062" xlink:href="#DejaVuSans-48"/>
       <use x="147.412109" xlink:href="#DejaVuSans-46"/>
       <use x="179.199219" xlink:href="#DejaVuSans-52"/>
      </g>
     </g>
    </g>
    <g id="ytick_3">
     <g id="line2d_7">
      <g>
       <use style="stroke:#000000;stroke-width:0.8;" x="61.839063" xlink:href="#m6ac2cfd948" y="240.895057"/>
      </g>
     </g>
     <g id="text_8">
      <!-- −0.2 -->
      <defs>
       <path d="M 19.1875 8.296875 
L 53.609375 8.296875 
L 53.609375 0 
L 7.328125 0 
L 7.328125 8.296875 
Q 12.9375 14.109375 22.625 23.890625 
Q 32.328125 33.6875 34.8125 36.53125 
Q 39.546875 41.84375 41.421875 45.53125 
Q 43.3125 49.21875 43.3125 52.78125 
Q 43.3125 58.59375 39.234375 62.25 
Q 35.15625 65.921875 28.609375 65.921875 
Q 23.96875 65.921875 18.8125 64.3125 
Q 13.671875 62.703125 7.8125 59.421875 
L 7.8125 69.390625 
Q 13.765625 71.78125 18.9375 73 
Q 24.125 74.21875 28.421875 74.21875 
Q 39.75 74.21875 46.484375 68.546875 
Q 53.21875 62.890625 53.21875 53.421875 
Q 53.21875 48.921875 51.53125 44.890625 
Q 49.859375 40.875 45.40625 35.40625 
Q 44.1875 33.984375 37.640625 27.21875 
Q 31.109375 20.453125 19.1875 8.296875 
z
" id="DejaVuSans-50"/>
      </defs>
      <g transform="translate(30.55625 244.694276)scale(0.1 -0.1)">
       <use xlink:href="#DejaVuSans-8722"/>
       <use x="83.789062" xlink:href="#DejaVuSans-48"/>
       <use x="147.412109" xlink:href="#DejaVuSans-46"/>
       <use x="179.199219" xlink:href="#DejaVuSans-50"/>
      </g>
     </g>
    </g>
    <g id="ytick_4">
     <g id="line2d_8">
      <g>
       <use style="stroke:#000000;stroke-width:0.8;" x="61.839063" xlink:href="#m6ac2cfd948" y="201.360511"/>
      </g>
     </g>
     <g id="text_9">
      <!-- 0.0 -->
      <g transform="translate(38.935938 205.15973)scale(0.1 -0.1)">
       <use xlink:href="#DejaVuSans-48"/>
       <use x="63.623047" xlink:href="#DejaVuSans-46"/>
       <use x="95.410156" xlink:href="#DejaVuSans-48"/>
      </g>
     </g>
    </g>
    <g id="ytick_5">
     <g id="line2d_9">
      <g>
       <use style="stroke:#000000;stroke-width:0.8;" x="61.839063" xlink:href="#m6ac2cfd948" y="161.825966"/>
      </g>
     </g>
     <g id="text_10">
      <!-- 0.2 -->
      <g transform="translate(38.935938 165.625185)scale(0.1 -0.1)">
       <use xlink:href="#DejaVuSans-48"/>
       <use x="63.623047" xlink:href="#DejaVuSans-46"/>
       <use x="95.410156" xlink:href="#DejaVuSans-50"/>
      </g>
     </g>
    </g>
    <g id="ytick_6">
     <g id="line2d_10">
      <g>
       <use style="stroke:#000000;stroke-width:0.8;" x="61.839063" xlink:href="#m6ac2cfd948" y="122.29142"/>
      </g>
     </g>
     <g id="text_11">
      <!-- 0.4 -->
      <g transform="translate(38.935938 126.090639)scale(0.1 -0.1)">
       <use xlink:href="#DejaVuSans-48"/>
       <use x="63.623047" xlink:href="#DejaVuSans-46"/>
       <use x="95.410156" xlink:href="#DejaVuSans-52"/>
      </g>
     </g>
    </g>
    <g id="ytick_7">
     <g id="line2d_11">
      <g>
       <use style="stroke:#000000;stroke-width:0.8;" x="61.839063" xlink:href="#m6ac2cfd948" y="82.756875"/>
      </g>
     </g>
     <g id="text_12">
      <!-- 0.6 -->
      <g transform="translate(38.935938 86.556094)scale(0.1 -0.1)">
       <use xlink:href="#DejaVuSans-48"/>
       <use x="63.623047" xlink:href="#DejaVuSans-46"/>
       <use x="95.410156" xlink:href="#DejaVuSans-54"/>
      </g>
     </g>
    </g>
    <g id="ytick_8">
     <g id="line2d_12">
      <g>
       <use style="stroke:#000000;stroke-width:0.8;" x="61.839063" xlink:href="#m6ac2cfd948" y="43.22233"/>
      </g>
     </g>
     <g id="text_13">
      <!-- 0.8 -->
      <defs>
       <path d="M 31.78125 34.625 
Q 24.75 34.625 20.71875 30.859375 
Q 16.703125 27.09375 16.703125 20.515625 
Q 16.703125 13.921875 20.71875 10.15625 
Q 24.75 6.390625 31.78125 6.390625 
Q 38.8125 6.390625 42.859375 10.171875 
Q 46.921875 13.96875 46.921875 20.515625 
Q 46.921875 27.09375 42.890625 30.859375 
Q 38.875 34.625 31.78125 34.625 
z
M 21.921875 38.8125 
Q 15.578125 40.375 12.03125 44.71875 
Q 8.5 49.078125 8.5 55.328125 
Q 8.5 64.0625 14.71875 69.140625 
Q 20.953125 74.21875 31.78125 74.21875 
Q 42.671875 74.21875 48.875 69.140625 
Q 55.078125 64.0625 55.078125 55.328125 
Q 55.078125 49.078125 51.53125 44.71875 
Q 48 40.375 41.703125 38.8125 
Q 48.828125 37.15625 52.796875 32.3125 
Q 56.78125 27.484375 56.78125 20.515625 
Q 56.78125 9.90625 50.3125 4.234375 
Q 43.84375 -1.421875 31.78125 -1.421875 
Q 19.734375 -1.421875 13.25 4.234375 
Q 6.78125 9.90625 6.78125 20.515625 
Q 6.78125 27.484375 10.78125 32.3125 
Q 14.796875 37.15625 21.921875 38.8125 
z
M 18.3125 54.390625 
Q 18.3125 48.734375 21.84375 45.5625 
Q 25.390625 42.390625 31.78125 42.390625 
Q 38.140625 42.390625 41.71875 45.5625 
Q 45.3125 48.734375 45.3125 54.390625 
Q 45.3125 60.0625 41.71875 63.234375 
Q 38.140625 66.40625 31.78125 66.40625 
Q 25.390625 66.40625 21.84375 63.234375 
Q 18.3125 60.0625 18.3125 54.390625 
z
" id="DejaVuSans-56"/>
      </defs>
      <g transform="translate(38.935938 47.021548)scale(0.1 -0.1)">
       <use xlink:href="#DejaVuSans-48"/>
       <use x="63.623047" xlink:href="#DejaVuSans-46"/>
       <use x="95.410156" xlink:href="#DejaVuSans-56"/>
      </g>
     </g>
    </g>
    <g id="text_14">
     <!-- Polarity -->
     <defs>
      <path d="M 9.421875 75.984375 
L 18.40625 75.984375 
L 18.40625 0 
L 9.421875 0 
z
" id="DejaVuSans-108"/>
      <path d="M 32.171875 -5.078125 
Q 28.375 -14.84375 24.75 -17.8125 
Q 21.140625 -20.796875 15.09375 -20.796875 
L 7.90625 -20.796875 
L 7.90625 -13.28125 
L 13.1875 -13.28125 
Q 16.890625 -13.28125 18.9375 -11.515625 
Q 21 -9.765625 23.484375 -3.21875 
L 25.09375 0.875 
L 2.984375 54.6875 
L 12.5 54.6875 
L 29.59375 11.921875 
L 46.6875 54.6875 
L 56.203125 54.6875 
z
" id="DejaVuSans-121"/>
     </defs>
     <g style="fill:#00bfbf;" transform="translate(22.396875 228.897187)rotate(-90)scale(0.2 -0.2)">
      <use xlink:href="#DejaVuSans-80"/>
      <use x="56.677734" xlink:href="#DejaVuSans-111"/>
      <use x="117.859375" xlink:href="#DejaVuSans-108"/>
      <use x="145.642578" xlink:href="#DejaVuSans-97"/>
      <use x="206.921875" xlink:href="#DejaVuSans-114"/>
      <use x="248.035156" xlink:href="#DejaVuSans-105"/>
      <use x="275.818359" xlink:href="#DejaVuSans-116"/>
      <use x="315.027344" xlink:href="#DejaVuSans-121"/>
     </g>
    </g>
   </g>
   <g id="line2d_13">
    <path clip-path="url(#pf9f462e280)" d="M 75.789062 185.771659 
L 187.389063 185.771659 
" style="fill:none;stroke:#262626;stroke-linecap:square;stroke-opacity:0.45;stroke-width:1.5;"/>
   </g>
   <g id="line2d_14">
    <path clip-path="url(#pf9f462e280)" d="M 215.289062 185.753018 
L 326.889063 185.753018 
" style="fill:none;stroke:#262626;stroke-linecap:square;stroke-opacity:0.45;stroke-width:1.5;"/>
   </g>
   <g id="line2d_15">
    <path clip-path="url(#pf9f462e280)" d="M 354.789062 186.515319 
L 466.389063 186.515319 
" style="fill:none;stroke:#262626;stroke-linecap:square;stroke-opacity:0.45;stroke-width:1.5;"/>
   </g>
   <g id="line2d_16">
    <path clip-path="url(#pf9f462e280)" d="M 494.289062 196.936407 
L 605.889063 196.936407 
" style="fill:none;stroke:#262626;stroke-linecap:square;stroke-opacity:0.45;stroke-width:1.5;"/>
   </g>
   <g id="patch_3">
    <path d="M 61.839063 354.556875 
L 61.839063 28.396875 
" style="fill:none;stroke:#000000;stroke-linecap:square;stroke-linejoin:miter;stroke-width:0.8;"/>
   </g>
   <g id="patch_4">
    <path d="M 619.839062 354.556875 
L 619.839062 28.396875 
" style="fill:none;stroke:#000000;stroke-linecap:square;stroke-linejoin:miter;stroke-width:0.8;"/>
   </g>
   <g id="patch_5">
    <path d="M 61.839063 354.556875 
L 619.839062 354.556875 
" style="fill:none;stroke:#000000;stroke-linecap:square;stroke-linejoin:miter;stroke-width:0.8;"/>
   </g>
   <g id="patch_6">
    <path d="M 61.839063 28.396875 
L 619.839062 28.396875 
" style="fill:none;stroke:#000000;stroke-linecap:square;stroke-linejoin:miter;stroke-width:0.8;"/>
   </g>
   <g id="text_15">
    <!-- Boxplot of Polarity for Covid-19 by Authors -->
    <defs>
     <path d="M 19.671875 34.8125 
L 19.671875 8.109375 
L 35.5 8.109375 
Q 43.453125 8.109375 47.28125 11.40625 
Q 51.125 14.703125 51.125 21.484375 
Q 51.125 28.328125 47.28125 31.5625 
Q 43.453125 34.8125 35.5 34.8125 
z
M 19.671875 64.796875 
L 19.671875 42.828125 
L 34.28125 42.828125 
Q 41.5 42.828125 45.03125 45.53125 
Q 48.578125 48.25 48.578125 53.8125 
Q 48.578125 59.328125 45.03125 62.0625 
Q 41.5 64.796875 34.28125 64.796875 
z
M 9.8125 72.90625 
L 35.015625 72.90625 
Q 46.296875 72.90625 52.390625 68.21875 
Q 58.5 63.53125 58.5 54.890625 
Q 58.5 48.1875 55.375 44.234375 
Q 52.25 40.28125 46.1875 39.3125 
Q 53.46875 37.75 57.5 32.78125 
Q 61.53125 27.828125 61.53125 20.40625 
Q 61.53125 10.640625 54.890625 5.3125 
Q 48.25 0 35.984375 0 
L 9.8125 0 
z
" id="DejaVuSans-66"/>
     <path d="M 54.890625 54.6875 
L 35.109375 28.078125 
L 55.90625 0 
L 45.3125 0 
L 29.390625 21.484375 
L 13.484375 0 
L 2.875 0 
L 24.125 28.609375 
L 4.6875 54.6875 
L 15.28125 54.6875 
L 29.78125 35.203125 
L 44.28125 54.6875 
z
" id="DejaVuSans-120"/>
     <path d="M 18.109375 8.203125 
L 18.109375 -20.796875 
L 9.078125 -20.796875 
L 9.078125 54.6875 
L 18.109375 54.6875 
L 18.109375 46.390625 
Q 20.953125 51.265625 25.265625 53.625 
Q 29.59375 56 35.59375 56 
Q 45.5625 56 51.78125 48.09375 
Q 58.015625 40.1875 58.015625 27.296875 
Q 58.015625 14.40625 51.78125 6.484375 
Q 45.5625 -1.421875 35.59375 -1.421875 
Q 29.59375 -1.421875 25.265625 0.953125 
Q 20.953125 3.328125 18.109375 8.203125 
z
M 48.6875 27.296875 
Q 48.6875 37.203125 44.609375 42.84375 
Q 40.53125 48.484375 33.40625 48.484375 
Q 26.265625 48.484375 22.1875 42.84375 
Q 18.109375 37.203125 18.109375 27.296875 
Q 18.109375 17.390625 22.1875 11.75 
Q 26.265625 6.109375 33.40625 6.109375 
Q 40.53125 6.109375 44.609375 11.75 
Q 48.6875 17.390625 48.6875 27.296875 
z
" id="DejaVuSans-112"/>
     <path d="M 37.109375 75.984375 
L 37.109375 68.5 
L 28.515625 68.5 
Q 23.6875 68.5 21.796875 66.546875 
Q 19.921875 64.59375 19.921875 59.515625 
L 19.921875 54.6875 
L 34.71875 54.6875 
L 34.71875 47.703125 
L 19.921875 47.703125 
L 19.921875 0 
L 10.890625 0 
L 10.890625 47.703125 
L 2.296875 47.703125 
L 2.296875 54.6875 
L 10.890625 54.6875 
L 10.890625 58.5 
Q 10.890625 67.625 15.140625 71.796875 
Q 19.390625 75.984375 28.609375 75.984375 
z
" id="DejaVuSans-102"/>
     <path d="M 2.984375 54.6875 
L 12.5 54.6875 
L 29.59375 8.796875 
L 46.6875 54.6875 
L 56.203125 54.6875 
L 35.6875 0 
L 23.484375 0 
z
" id="DejaVuSans-118"/>
     <path d="M 4.890625 31.390625 
L 31.203125 31.390625 
L 31.203125 23.390625 
L 4.890625 23.390625 
z
" id="DejaVuSans-45"/>
     <path d="M 12.40625 8.296875 
L 28.515625 8.296875 
L 28.515625 63.921875 
L 10.984375 60.40625 
L 10.984375 69.390625 
L 28.421875 72.90625 
L 38.28125 72.90625 
L 38.28125 8.296875 
L 54.390625 8.296875 
L 54.390625 0 
L 12.40625 0 
z
" id="DejaVuSans-49"/>
     <path d="M 10.984375 1.515625 
L 10.984375 10.5 
Q 14.703125 8.734375 18.5 7.8125 
Q 22.3125 6.890625 25.984375 6.890625 
Q 35.75 6.890625 40.890625 13.453125 
Q 46.046875 20.015625 46.78125 33.40625 
Q 43.953125 29.203125 39.59375 26.953125 
Q 35.25 24.703125 29.984375 24.703125 
Q 19.046875 24.703125 12.671875 31.3125 
Q 6.296875 37.9375 6.296875 49.421875 
Q 6.296875 60.640625 12.9375 67.421875 
Q 19.578125 74.21875 30.609375 74.21875 
Q 43.265625 74.21875 49.921875 64.515625 
Q 56.59375 54.828125 56.59375 36.375 
Q 56.59375 19.140625 48.40625 8.859375 
Q 40.234375 -1.421875 26.421875 -1.421875 
Q 22.703125 -1.421875 18.890625 -0.6875 
Q 15.09375 0.046875 10.984375 1.515625 
z
M 30.609375 32.421875 
Q 37.25 32.421875 41.125 36.953125 
Q 45.015625 41.5 45.015625 49.421875 
Q 45.015625 57.28125 41.125 61.84375 
Q 37.25 66.40625 30.609375 66.40625 
Q 23.96875 66.40625 20.09375 61.84375 
Q 16.21875 57.28125 16.21875 49.421875 
Q 16.21875 41.5 20.09375 36.953125 
Q 23.96875 32.421875 30.609375 32.421875 
z
" id="DejaVuSans-57"/>
    </defs>
    <g style="fill:#00bfbf;" transform="translate(127.5875 22.396875)scale(0.2 -0.2)">
     <use xlink:href="#DejaVuSans-66"/>
     <use x="68.603516" xlink:href="#DejaVuSans-111"/>
     <use x="126.660156" xlink:href="#DejaVuSans-120"/>
     <use x="185.839844" xlink:href="#DejaVuSans-112"/>
     <use x="249.316406" xlink:href="#DejaVuSans-108"/>
     <use x="277.099609" xlink:href="#DejaVuSans-111"/>
     <use x="338.28125" xlink:href="#DejaVuSans-116"/>
     <use x="377.490234" xlink:href="#DejaVuSans-32"/>
     <use x="409.277344" xlink:href="#DejaVuSans-111"/>
     <use x="470.458984" xlink:href="#DejaVuSans-102"/>
     <use x="505.664062" xlink:href="#DejaVuSans-32"/>
     <use x="537.451172" xlink:href="#DejaVuSans-80"/>
     <use x="594.128906" xlink:href="#DejaVuSans-111"/>
     <use x="655.310547" xlink:href="#DejaVuSans-108"/>
     <use x="683.09375" xlink:href="#DejaVuSans-97"/>
     <use x="744.373047" xlink:href="#DejaVuSans-114"/>
     <use x="785.486328" xlink:href="#DejaVuSans-105"/>
     <use x="813.269531" xlink:href="#DejaVuSans-116"/>
     <use x="852.478516" xlink:href="#DejaVuSans-121"/>
     <use x="911.658203" xlink:href="#DejaVuSans-32"/>
     <use x="943.445312" xlink:href="#DejaVuSans-102"/>
     <use x="978.650391" xlink:href="#DejaVuSans-111"/>
     <use x="1039.832031" xlink:href="#DejaVuSans-114"/>
     <use x="1080.945312" xlink:href="#DejaVuSans-32"/>
     <use x="1112.732422" xlink:href="#DejaVuSans-67"/>
     <use x="1182.556641" xlink:href="#DejaVuSans-111"/>
     <use x="1243.738281" xlink:href="#DejaVuSans-118"/>
     <use x="1302.917969" xlink:href="#DejaVuSans-105"/>
     <use x="1330.701172" xlink:href="#DejaVuSans-100"/>
     <use x="1394.177734" xlink:href="#DejaVuSans-45"/>
     <use x="1430.261719" xlink:href="#DejaVuSans-49"/>
     <use x="1493.884766" xlink:href="#DejaVuSans-57"/>
     <use x="1557.507812" xlink:href="#DejaVuSans-32"/>
     <use x="1589.294922" xlink:href="#DejaVuSans-98"/>
     <use x="1652.771484" xlink:href="#DejaVuSans-121"/>
     <use x="1711.951172" xlink:href="#DejaVuSans-32"/>
     <use x="1743.738281" xlink:href="#DejaVuSans-65"/>
     <use x="1812.146484" xlink:href="#DejaVuSans-117"/>
     <use x="1875.525391" xlink:href="#DejaVuSans-116"/>
     <use x="1914.734375" xlink:href="#DejaVuSans-104"/>
     <use x="1978.113281" xlink:href="#DejaVuSans-111"/>
     <use x="2039.294922" xlink:href="#DejaVuSans-114"/>
     <use x="2080.408203" xlink:href="#DejaVuSans-115"/>
    </g>
   </g>
  </g>
 </g>
 <defs>
  <clipPath id="pf9f462e280">
   <rect height="326.16" width="558" x="61.839063" y="28.396875"/>
  </clipPath>
 </defs>
</svg>